# AST/ASF file generated using VICON BodyLanguage
# -----------------------------------------------
:version 1.10
:name VICON
:units
  mass 1.0
  length 0.45
  angle deg
:documentation
   .ast/.asf automatically generated from VICON data using
   VICON BodyBuilder and BodyLanguage model FoxedUp or BRILLIANT.MOD
:root
   order TX TY TZ RX RY RZ
   axis XYZ
   position 0 0 0  
   orientation 0 0 0 
:bonedata
  begin
     id 1 
     name lhipjoint
     direction 0.707368 -0.647095 0.284426 
     length 2.60678 
     axis 0 0 0  XYZ
  end
  begin
     id 2 
     name lfemur
     direction 0.34202 -0.939693 0  
     length 6.63812  
     axis 0 0 20  XYZ
    dof rx ry rz
    limits (-160.0 20.0)
           (-70.0 70.0)
           (-60.0 70.0)
  end
  begin
     id 3 
     name ltibia
     direction 0.34202 -0.939693 0   
     length 7.51178   
     axis 0 0 20   XYZ
    dof rx
    limits (-10.0 170.0)
  end
  begin
     id 4 
     name lfoot
     direction 0.121251 -0.333133 0.935051   
     length 1.83716   
     axis -90 7.62852e-016 20   XYZ
    dof rx rz
    limits (-45.0 90.0)
           (-70.0 20.0)
  end
  begin
     id 5 
     name ltoes
     direction 1.53611e-011 -4.21962e-011 1   
     length 0.916133   
     axis -90 7.62852e-016 20   XYZ
    dof rx
    limits (-90.0 20.0)
  end
  begin
     id 6 
     name rhipjoint
     direction -0.692419 -0.660507 0.290321   
     length 2.55385  
     axis 0 0 0  XYZ 
  end
  begin
     id 7 
     name rfemur
     direction -0.34202 -0.939693 0   
     length 7.29079   
     axis 0 0 -20   XYZ
    dof rx ry rz
    limits (-160.0 20.0)
           (-70.0 70.0)
           (-70.0 60.0)
  end
  begin
     id 8 
     name rtibia
     direction -0.34202 -0.939693 0   
     length 7.47143   
     axis 0 0 -20   XYZ
    dof rx
    limits (-10.0 170.0)
 end
 begin
     id 9 
     name rfoot
     direction -0.119907 -0.329441 0.936532   
     length 1.79439  
     axis -90 -7.62852e-016 -20   XYZ
    dof rx rz
    limits (-45.0 90.0)
           (-20.0 70.0)
  end
  begin
     id 10 
     name rtoes
     direction -1.53571e-011 -4.21961e-011 1   
     length 0.896039   
     axis -90 -7.62852e-016 -20   XYZ
    dof rx
    limits (-90.0 20.0)
  end
  begin
     id 11 
     name lowerback
     direction 0.0367721 0.992912 -0.113016   
     length 1.73542   
     axis 0 0 0   XYZ
    dof rx ry rz
    limits (-20.0 45.0)
           (-30.0 30.0)
           (-30.0 30.0)
  end
  begin
     id 12 
     name upperback
     direction -0.000314626 0.990678 0.136227   
     length 1.7514   
     axis 0 0 0   XYZ
    dof rx ry rz
    limits (-20.0 45.0)
           (-30.0 30.0)
           (-30.0 30.0)
  end
  begin
     id 13 
     name thorax
     direction -0.0226159 0.981151 0.191917   
     length 1.71471   
     axis 0 0 0   XYZ
    dof rx ry rz
    limits (-20.0 45.0)
           (-30.0 30.0)
           (-30.0 30.0)
  end
  begin
     id 14 
     name lowerneck
     direction 0.0219333 0.998071 0.0580739   
     length 1.65882   
     axis 0 0 0   XYZ
    dof rx ry rz
    limits (-20.0 45.0)
           (-30.0 30.0)
           (-30.0 30.0)
  end
  begin
     id 15 
     name upperneck
     direction 0.0384529 0.980058 -0.194957   
     length 1.6612   
     axis 0 0 0   XYZ
    dof rx ry rz
    limits (-20.0 45.0)
           (-30.0 30.0)
           (-30.0 30.0)
  end
  begin
     id 16
     name head
     direction 0.00592123 0.997421 -0.0715234  
     length 1.68077  
     axis 0 0 0   XYZ
    dof rx ry rz
    limits (-20.0 45.0)
           (-30.0 30.0)
           (-30.0 30.0)
  end
  begin
     id 17 
     name lclavicle
     direction 0.904803 0.417826 0.0821728  
     length 3.42227  
     axis 0 0 0   XYZ
    dof ry rz
    limits (-20.0 10.0)
           (0.0 20.0)
  end
  begin
     id 18 
     name lhumerus
     direction 1 -4.48965e-011 -2.68786e-027   
     length 5.11878   
     axis -180 -30 -90   XYZ
    dof rx ry rz
    limits (-60.0 90.0)
           (-90.0 90.0)
           (-90.0 90.0)
  end
  begin
     id 19
     name lradius
     direction 1 -4.48965e-011 2.61168e-028   
     length 3.59971   
     axis -180 -30 -90   XYZ
    dof rx
    limits (-10.0 170.0)
  end
  begin
     id 20
     name lwrist
     direction 1 -4.48965e-011 1.58672e-027   
     length 1.79985   
     axis -1.65735e-015 90 90   XYZ
    dof ry
    limits (-180.0 0.0)
 end
  begin
     id 21 
     name lhand
     direction 1 -4.48942e-011 3.17344e-027   
     length 0.62877   
     axis -2.02492e-015 90 90   XYZ
    dof rx rz
    limits (-90.0 90.0)
           (-45.0 45.0)
  end
  begin
     id 22 
     name lfingers
     direction 1 -4.49011e-011 6.34687e-027   
     length 0.506931   
     axis -4.04985e-015 90 90   XYZ
    dof rx
    limits (0.0 90.0)
  end
  begin
     id 23
     name lthumb
     direction 0.707107 -6.34982e-011 0.707107   
     length 0.727854   
     axis -90 45 2.85299e-015   XYZ
    dof rx rz
    limits (-45.0 45.0)
           (-45.0 45.0)
  end
  begin
     id 24 
     name rclavicle
     direction -0.945647 0.32488 0.0143075   
     length 3.52737  
     axis 0 0 0   XYZ 
    dof ry rz
    limits (-10.0 20.0)
           (-20.0 0.0)
  end
  begin
     id 25 
     name rhumerus
     direction -1 -4.48962e-011 1.92182e-027  
     length 5.4902   
     axis -180 30 90   XYZ
    dof rx ry rz
    limits (-90.0 60.0)
           (-90.0 90.0)
           (-90.0 90.0)
  end
  begin
     id 26 
     name rradius
     direction -1 -4.48967e-011 -5.97193e-028   
     length 3.20659   
     axis -180 30 90   XYZ
    dof rx
    limits (-10.0 170.0)
  end
  begin
     id 27 
     name rwrist
     direction -1 -4.48964e-011 1.58672e-027   
     length 1.6033   
     axis -1.65735e-015 -90 -90   XYZ
    dof ry
    limits (-180.0 0.0)
  end
  begin
     id 28
     name rhand
     direction -1 -4.49006e-011 3.17344e-027   
     length 0.691885   
     axis -2.02492e-015 -90 -90   XYZ
    dof rx rz
    limits (-90.0 90.0)
           (-45.0 45.0)
  end
  begin
     id 29
     name rfingers
     direction -1 -4.48908e-011 6.34687e-027   
     length 0.557815   
     axis -4.04985e-015 -90 -90   XYZ
    dof rx
    limits (0.0 90.0)
  end
  begin
     id 30
     name rthumb
     direction -0.707107 -6.34999e-011 0.707107   
     length 0.800915   
     axis -90 -45 -2.85299e-015   XYZ
    dof rx rz
    limits (-45.0 45.0)
           (-45.0 45.0)
  end
:hierarchy
  begin
    root lhipjoint rhipjoint lowerback
    lhipjoint lfemur
    lfemur ltibia
    ltibia lfoot
    lfoot ltoes
    rhipjoint rfemur
    rfemur rtibia
    rtibia rfoot
    rfoot rtoes
    lowerback upperback
    upperback thorax
    thorax lowerneck lclavicle rclavicle
    lowerneck upperneck
    upperneck head
    lclavicle lhumerus
    lhumerus lradius
    lradius lwrist
    lwrist lhand lthumb
    lhand lfingers
    rclavicle rhumerus
    rhumerus rradius
    rradius rwrist
    rwrist rhand rthumb
    rhand rfingers
  end

#!OML:ASF I:\Actors\actors\Patient Classification 1\Patient 1\Session 1\Subject1.ASF
:FULLY-SPECIFIED
:DEGREES
61
root -0.375257 17.4802 7.67433 8.59942 -5.50873 -7.45273
lowerback -0.481803 0.596596 4.44851
upperback -9.36679 1.12814 1.59633
thorax -9.59237 0.263589 -0.871777
lowerneck -5.66787 -9.54208 -9.32879
upperneck 23.51 -14.9202 10.9795
head 9.91425 -6.83547 3.69658
rclavicle -2.43511e-015 9.93923e-015
rhumerus -46.0878 -19.3814 -74.8086
rradius 23.8659
rwrist 41.9172
rhand 4.78346 -32.0207
rfingers 7.12502
rthumb 30.1634 -59.5782
lclavicle -2.43511e-015 9.93923e-015
lhumerus -43.5842 15.485 78.4282
lradius 21.5974
lwrist -27.1841
lhand -17.6662 -8.70085
lfingers 7.12502
lthumb 8.5925 21.1043
rfemur -3.02252 25.4881 24.4905
rtibia 1.81791
rfoot -9.84749 -20.306
rtoes -1.16818
lfemur 8.26585 -42.9115 -17.8173
ltibia -4.71929
lfoot -27.5616 54.9427
ltoes 20.2574
62
root -0.374266 17.4803 7.67278 8.60719 -5.52631 -7.40206
lowerback -0.473496 0.596051 4.40801
upperback -9.41 1.1262 1.57874
thorax -9.64584 0.263507 -0.867679
lowerneck -5.60644 -9.55828 -9.335
upperneck 23.5109 -14.9458 10.9705
head 9.90572 -6.85162 3.69394
rclavicle -8.64713e-015 2.78299e-015
rhumerus -46.1242 -19.3536 -74.811
rradius 23.8673
rwrist 41.8823
rhand 4.72538 -32.0745
rfingers 7.12502
rthumb 30.108 -59.6422
lclavicle -8.64713e-015 2.78299e-015
lhumerus -43.6323 15.522 78.3403
lradius 21.5488
lwrist -27.2011
lhand -17.6986 -8.64032
lfingers 7.12502
lthumb 8.56124 21.1661
rfemur -3.03701 25.4907 24.4203
rtibia 1.80604
rfoot -9.83625 -20.3055
rtoes -1.12155
lfemur 8.22282 -42.852 -17.8543
ltibia -4.70227
lfoot -27.5919 54.9073
ltoes 20.1827
63
root -0.373222 17.4804 7.67137 8.61907 -5.55671 -7.35401
lowerback -0.474995 0.588763 4.35662
upperback -9.45008 1.11445 1.56982
thorax -9.69067 0.260133 -0.847457
lowerneck -5.51093 -9.57075 -9.34599
upperneck 23.4417 -14.9588 10.9633
head 9.86454 -6.86528 3.69585
rclavicle 7.70291e-015 -1.11319e-014
rhumerus -46.1294 -19.1916 -74.9152
rradius 23.915
rwrist 41.7311
rhand 4.76433 -32.1452
rfingers 7.12502
rthumb 30.1452 -59.7061
lclavicle 7.70291e-015 -1.11319e-014
lhumerus -43.6771 15.631 78.195
lradius 21.5003
lwrist -27.3323
lhand -17.6232 -8.57451
lfingers 7.12502
lthumb 8.63393 21.2289
rfemur -3.07571 25.4448 24.3388
rtibia 1.81383
rfoot -9.86242 -20.2385
rtoes -1.10277
lfemur 8.1986 -42.8414 -17.9081
ltibia -4.69348
lfoot -27.7534 54.9004
ltoes 20.2935
64
root -0.372287 17.4813 7.66923 8.63166 -5.5749 -7.34778
lowerback -0.460062 0.620581 4.35972
upperback -9.48479 1.15776 1.54309
thorax -9.73605 0.278575 -0.880977
lowerneck -5.48509 -9.63953 -9.22174
upperneck 23.378 -15.0319 10.8217
head 9.82322 -6.90449 3.61755
rclavicle 9.44227e-016 3.97569e-016
rhumerus -46.1556 -19.1649 -74.9502
rradius 23.9749
rwrist 41.6177
rhand 4.87084 -32.2108
rfingers 7.12502
rthumb 30.2468 -59.7531
lclavicle 9.44227e-016 3.97569e-016
lhumerus -43.6423 15.673 78.0885
lradius 21.4262
lwrist -27.4974
lhand -17.5145 -8.52909
lfingers 7.12502
lthumb 8.73885 21.27
rfemur -3.12322 25.4229 24.308
rtibia 1.84075
rfoot -9.89014 -20.1887
rtoes -1.17256
lfemur 8.18083 -42.8793 -17.9142
ltibia -4.6959
lfoot -27.8194 54.9549
ltoes 20.3712
65
root -0.370963 17.4831 7.66715 8.63037 -5.56288 -7.3376
lowerback -0.428957 0.650086 4.36769
upperback -9.51363 1.19874 1.51204
thorax -9.78444 0.295278 -0.921897
lowerneck -5.5573 -9.71362 -9.14416
upperneck 23.4321 -15.1253 10.7178
head 9.8522 -6.94649 3.55241
rclavicle 9.49197e-015 -5.56597e-015
rhumerus -46.1832 -19.1494 -74.9869
rradius 24.0385
rwrist 41.4482
rhand 4.95064 -32.2903
rfingers 7.12502
rthumb 30.3229 -59.8186
lclavicle 9.49197e-015 -5.56597e-015
lhumerus -43.5724 15.7123 78.0133
lradius 21.335
lwrist -27.6216
lhand -17.5333 -8.50104
lfingers 7.12502
lthumb 8.72068 21.2988
rfemur -3.13445 25.4087 24.2916
rtibia 1.84897
rfoot -9.86717 -20.1892
rtoes -1.33131
lfemur 8.15842 -42.8836 -17.9184
ltibia -4.68815
lfoot -27.6346 54.999
ltoes 20.1991
66
root -0.369161 17.4843 7.66518 8.62231 -5.55571 -7.30967
lowerback -0.40827 0.653812 4.33819
upperback -9.53671 1.20355 1.4999
thorax -9.8225 0.298495 -0.918954
lowerneck -5.58052 -9.74646 -9.24688
upperneck 23.4402 -15.1908 10.8397
head 9.88667 -6.97299 3.60048
rclavicle -4.37326e-015 -2.22639e-014
rhumerus -46.1887 -18.9981 -75.1075
rradius 24.1271
rwrist 41.2115
rhand 4.99075 -32.4301
rfingers 7.12502
rthumb 30.3612 -59.9513
lclavicle -4.37326e-015 -2.22639e-014
lhumerus -43.5457 15.8308 77.907
lradius 21.2806
lwrist -27.7699
lhand -17.5597 -8.49536
lfingers 7.12502
lthumb 8.69527 21.3055
rfemur -3.14854 25.3397 24.2478
rtibia 1.866
rfoot -9.83808 -20.1305
rtoes -1.28618
lfemur 8.13528 -42.8793 -17.9488
ltibia -4.65904
lfoot -27.4621 54.9993
ltoes 20.079
67
root -0.368104 17.4847 7.66321 8.63665 -5.56845 -7.28472
lowerback -0.421474 0.662855 4.27406
upperback -9.56244 1.21298 1.50361
thorax -9.84367 0.30799 -0.879853
lowerneck -5.5904 -9.77161 -9.32639
upperneck 23.419 -15.239 10.9377
head 9.90211 -6.99292 3.63964
rclavicle -8.10048e-015 -2.50469e-014
rhumerus -46.1865 -18.8399 -75.2207
rradius 24.1849
rwrist 41.0832
rhand 4.96975 -32.4927
rfingers 7.12502
rthumb 30.3411 -60.0176
lclavicle -8.10048e-015 -2.50469e-014
lhumerus -43.5337 15.9003 77.8471
lradius 21.2703
lwrist -27.8723
lhand -17.5106 -8.4695
lfingers 7.12502
lthumb 8.74259 21.3294
rfemur -3.20327 25.2948 24.1884
rtibia 1.89106
rfoot -9.84657 -20.0667
rtoes -1.1867
lfemur 8.08216 -42.892 -17.9545
ltibia -4.62108
lfoot -27.6043 54.9541
ltoes 20.3429
68
root -0.367182 17.4851 7.66026 8.63948 -5.5951 -7.2994
lowerback -0.396097 0.678283 4.24249
upperback -9.58448 1.23615 1.52328
thorax -9.88336 0.322032 -0.843411
lowerneck -5.63807 -9.79632 -9.32218
upperneck 23.4456 -15.271 10.9189
head 9.9227 -7.0064 3.62539
rclavicle -6.26172e-015 2.3059e-014
rhumerus -46.1612 -18.6454 -75.3563
rradius 24.2099
rwrist 41.0026
rhand 4.94576 -32.4394
rfingers 7.12502
rthumb 30.3182 -59.9686
lclavicle -6.26172e-015 2.3059e-014
lhumerus -43.4962 15.8985 77.8564
lradius 21.259
lwrist -27.8487
lhand -17.4508 -8.44808
lfingers 7.12502
lthumb 8.80037 21.3484
rfemur -3.24317 25.2905 24.1881
rtibia 1.91883
rfoot -9.86894 -20.0346
rtoes -1.13675
lfemur 8.03713 -42.8304 -17.9057
ltibia -4.60305
lfoot -27.7223 54.8743
ltoes 20.5633
69
root -0.365428 17.4857 7.65675 8.60407 -5.63512 -7.34791
lowerback -0.312913 0.710583 4.28851
upperback -9.59386 1.28803 1.52832
thorax -9.94121 0.342683 -0.868782
lowerneck -5.66537 -9.82774 -9.39235
upperneck 23.4831 -15.3266 10.9812
head 9.95974 -7.03008 3.64889
rclavicle 1.88845e-014 9.54166e-015
rhumerus -46.1224 -18.4719 -75.504
rradius 24.2054
rwrist 40.9172
rhand 4.95413 -32.3968
rfingers 7.12502
rthumb 30.3262 -59.9245
lclavicle 1.88845e-014 9.54166e-015
lhumerus -43.43 15.8232 77.9094
lradius 21.26
lwrist -27.7233
lhand -17.388 -8.37221
lfingers 7.12502
lthumb 8.86093 21.4218
rfemur -3.23262 25.237 24.2412
rtibia 1.94291
rfoot -9.88918 -19.9283
rtoes -0.997549
lfemur 8.05604 -42.735 -17.8683
ltibia -4.58554
lfoot -27.7084 54.8118
ltoes 20.6443
